<svg id="svg" version="1.1" xmlns="http://www.w3.org/2000/svg" xmlns:xlink="http://www.w3.org/1999/xlink" width="400" height="47.85435630689207" viewBox="0, 0, 400,47.85435630689207"><g id="svgg"><path id="path0" d="M99.246 7.036 C 99.201 7.154,99.183 13.887,99.207 22.000 L 99.250 36.750 101.043 36.797 L 102.835 36.845 102.793 21.881 L 102.750 6.917 101.039 6.869 C 99.763 6.834,99.307 6.876,99.246 7.036 M143.783 6.939 C 143.719 7.003,143.667 7.897,143.667 8.925 C 143.667 11.100,143.565 10.996,145.667 10.995 C 147.399 10.995,147.353 11.056,147.297 8.820 L 147.250 6.917 145.575 6.870 C 144.654 6.844,143.847 6.875,143.783 6.939 M281.950 6.939 C 281.886 7.003,281.833 13.756,281.833 21.944 L 281.833 36.833 283.667 36.833 L 285.500 36.833 285.500 32.532 L 285.500 28.231 286.659 27.102 C 288.096 25.703,288.146 25.715,289.416 27.709 C 290.517 29.439,292.153 31.962,294.062 34.875 L 295.345 36.833 297.506 36.833 C 298.694 36.833,299.667 36.796,299.667 36.751 C 299.667 36.671,296.993 32.592,296.279 31.583 C 294.901 29.635,290.833 23.396,290.833 23.231 C 290.833 23.119,292.596 21.315,294.749 19.222 C 296.903 17.129,298.666 15.360,298.666 15.292 C 298.666 15.223,297.671 15.167,296.453 15.167 L 294.240 15.167 290.087 19.336 C 287.803 21.630,285.855 23.480,285.759 23.447 C 285.641 23.408,285.556 20.698,285.500 15.153 L 285.417 6.917 283.742 6.870 C 282.820 6.844,282.014 6.875,281.950 6.939 M302.950 6.939 C 302.886 7.003,302.833 13.756,302.833 21.944 L 302.833 36.833 304.500 36.833 L 306.167 36.833 306.167 36.014 C 306.167 34.411,306.279 34.376,307.568 35.576 C 309.375 37.257,312.096 37.905,314.313 37.181 C 314.898 36.990,315.437 36.833,315.510 36.833 C 315.830 36.833,317.803 35.522,318.438 34.887 C 323.467 29.857,322.516 18.638,316.811 15.704 C 313.477 13.989,310.237 14.290,307.516 16.568 C 306.497 17.422,306.510 17.481,306.461 11.911 L 306.417 6.917 304.742 6.870 C 303.820 6.844,303.014 6.875,302.950 6.939 M135.583 7.857 C 135.308 8.025,134.964 8.220,134.817 8.290 C 134.671 8.360,134.129 8.679,133.613 9.000 L 132.673 9.583 132.670 12.281 L 132.667 14.980 131.958 15.073 C 131.569 15.124,130.987 15.184,130.667 15.208 L 130.083 15.250 130.034 16.390 C 129.970 17.862,130.090 18.000,131.434 18.000 C 132.776 18.000,132.651 17.175,132.715 26.417 C 132.781 35.806,132.807 35.914,135.316 37.045 C 136.694 37.666,140.508 37.395,140.499 36.676 C 140.496 36.459,140.147 34.393,140.070 34.138 C 139.999 33.903,139.764 33.864,138.575 33.888 C 137.194 33.916,137.154 33.906,136.753 33.417 L 136.343 32.917 136.380 25.500 L 136.417 18.083 137.991 18.035 C 139.969 17.974,140.026 17.928,139.965 16.432 L 139.917 15.250 138.833 15.210 C 138.237 15.188,137.431 15.127,137.042 15.075 L 136.333 14.980 136.322 11.531 C 136.308 7.517,136.289 7.425,135.583 7.857 M114.083 14.953 C 111.055 15.682,108.984 17.461,108.206 20.000 C 107.820 21.261,107.791 21.208,109.000 21.448 C 111.434 21.931,111.074 22.042,111.758 20.600 C 112.805 18.395,114.148 17.666,117.160 17.668 C 118.392 17.668,119.059 17.743,119.394 17.918 C 119.657 18.055,119.964 18.167,120.077 18.167 C 121.126 18.167,122.324 20.000,122.330 21.614 C 122.334 22.860,121.969 23.219,120.500 23.416 C 119.996 23.483,119.450 23.609,119.286 23.695 C 119.123 23.781,118.298 23.918,117.453 24.000 C 110.083 24.714,107.167 26.753,107.167 31.190 C 107.167 37.332,114.959 39.504,121.373 35.149 C 122.511 34.377,122.629 34.361,122.763 34.958 C 122.819 35.210,122.981 35.735,123.122 36.125 L 123.379 36.833 125.189 36.833 C 127.139 36.833,127.160 36.821,126.762 35.942 C 126.210 34.721,126.128 33.678,126.016 26.500 C 125.891 18.468,125.904 18.565,124.727 17.016 C 124.171 16.284,124.011 16.163,122.750 15.529 C 121.032 14.664,116.526 14.365,114.083 14.953 M158.917 14.996 C 157.966 15.274,157.377 15.523,156.250 16.122 C 150.346 19.261,150.132 31.454,155.907 35.649 C 157.125 36.534,157.772 36.785,160.250 37.337 C 161.153 37.538,162.771 37.530,163.583 37.320 C 163.950 37.225,164.550 37.075,164.917 36.987 C 170.266 35.699,173.188 29.496,171.741 22.500 C 170.552 16.747,164.675 13.309,158.917 14.996 M184.167 14.927 C 182.734 15.381,182.104 15.763,180.991 16.855 C 180.034 17.793,179.866 17.719,179.801 16.329 L 179.750 15.250 178.125 15.202 L 176.500 15.155 176.500 25.994 L 176.500 36.833 178.250 36.833 L 180.000 36.833 180.000 30.410 C 180.000 20.542,180.426 19.298,184.244 18.004 C 186.004 17.407,187.744 17.738,189.142 18.934 C 190.422 20.030,190.407 19.915,190.467 28.881 L 190.521 36.844 192.302 36.797 L 194.083 36.750 194.070 28.333 C 194.052 17.756,193.882 17.109,190.676 15.459 C 189.264 14.733,185.701 14.442,184.167 14.927 M266.667 14.989 C 261.879 16.469,259.675 19.990,259.669 26.167 C 259.663 31.922,262.211 35.963,266.500 37.004 C 266.912 37.104,267.550 37.263,267.917 37.358 C 269.865 37.864,273.159 37.084,275.089 35.661 C 276.706 34.469,278.243 32.011,278.366 30.421 L 278.417 29.759 276.971 29.440 C 275.165 29.041,275.094 29.072,274.689 30.424 C 274.140 32.252,273.289 33.232,271.604 33.975 C 270.595 34.420,268.104 34.490,267.574 34.089 C 267.396 33.954,267.152 33.842,267.032 33.839 C 266.709 33.831,265.347 32.748,264.876 32.125 C 263.118 29.797,262.819 23.771,264.317 20.858 C 264.751 20.015,265.945 18.667,266.257 18.667 C 266.376 18.667,266.497 18.610,266.528 18.542 C 266.689 18.178,268.489 17.667,269.607 17.667 C 271.809 17.667,273.399 18.716,274.340 20.792 C 274.845 21.906,275.036 22.007,275.947 21.649 C 276.206 21.547,276.792 21.414,277.250 21.353 C 279.263 21.085,276.923 17.040,273.842 15.463 C 272.236 14.641,268.575 14.399,266.667 14.989 M332.265 14.931 C 331.815 15.054,331.204 15.269,330.907 15.410 C 330.609 15.551,330.327 15.667,330.278 15.667 C 329.975 15.667,328.083 17.126,327.455 17.844 C 325.640 19.918,325.090 21.811,325.086 26.000 C 325.083 29.373,325.140 29.743,325.962 31.750 C 327.353 35.145,331.057 37.476,335.083 37.489 C 335.633 37.491,336.383 37.414,336.750 37.319 C 337.117 37.223,337.730 37.078,338.114 36.996 C 345.719 35.373,348.091 22.304,341.756 16.928 C 339.413 14.939,335.362 14.087,332.265 14.931 M357.417 14.975 C 356.131 15.399,355.190 15.959,354.224 16.873 C 353.233 17.810,353.200 17.791,353.129 16.250 L 353.083 15.250 351.417 15.250 L 349.750 15.250 349.750 26.000 L 349.750 36.750 351.542 36.797 L 353.333 36.845 353.333 30.381 C 353.333 21.294,353.644 19.996,356.167 18.552 C 357.612 17.724,360.145 17.412,360.724 17.990 C 360.821 18.087,361.018 18.167,361.161 18.167 C 361.607 18.167,362.652 18.984,363.087 19.672 C 363.729 20.690,363.826 22.004,363.830 29.714 L 363.833 36.845 365.625 36.797 L 367.417 36.750 367.465 29.917 C 367.537 19.662,367.313 18.220,365.384 16.500 C 363.464 14.789,359.991 14.124,357.417 14.975 M379.833 14.817 C 379.696 14.894,379.310 15.006,378.977 15.066 C 378.643 15.126,378.043 15.359,377.643 15.585 C 377.244 15.810,376.735 16.074,376.513 16.170 C 375.910 16.434,373.972 18.489,373.526 19.339 C 371.321 23.537,371.448 29.596,373.815 33.218 C 375.322 35.523,377.011 36.551,380.583 37.339 C 381.439 37.527,383.227 37.527,384.083 37.339 C 387.968 36.483,389.547 35.411,391.106 32.575 C 391.973 30.998,391.891 30.813,390.167 30.459 C 388.337 30.083,388.183 30.131,387.604 31.246 C 385.328 35.630,378.915 35.374,376.624 30.809 C 376.138 29.839,375.539 27.406,375.738 27.207 C 375.805 27.139,379.473 27.046,383.889 27.000 L 391.917 26.917 391.893 25.250 C 391.845 21.870,390.871 19.270,388.933 17.350 C 387.881 16.307,387.687 16.167,386.417 15.531 C 384.878 14.761,380.735 14.311,379.833 14.817 M75.565 15.404 C 75.398 15.839,75.616 31.386,75.801 32.167 C 75.965 32.863,76.400 33.900,76.901 34.789 C 77.335 35.558,79.654 37.000,80.458 37.000 C 80.628 37.000,80.843 37.076,80.936 37.170 C 81.254 37.488,83.731 37.571,84.611 37.293 C 85.054 37.153,85.633 36.989,85.896 36.928 C 86.605 36.763,88.079 35.769,88.997 34.836 C 89.935 33.884,90.000 33.938,90.000 35.680 L 90.000 36.833 91.585 36.833 L 93.169 36.833 93.126 26.042 L 93.083 15.250 91.394 15.203 L 89.704 15.155 89.625 22.203 C 89.523 31.290,89.207 32.435,86.490 33.561 C 86.083 33.729,85.504 33.972,85.203 34.100 C 83.835 34.683,81.715 34.179,80.508 32.984 C 79.298 31.787,79.291 31.726,79.215 22.875 L 79.148 15.167 77.402 15.167 C 76.046 15.167,75.636 15.220,75.565 15.404 M143.783 15.272 C 143.719 15.336,143.667 20.214,143.667 26.111 L 143.667 36.833 145.501 36.833 L 147.336 36.833 147.293 26.042 L 147.250 15.250 145.575 15.203 C 144.654 15.177,143.847 15.208,143.783 15.272 M163.727 17.918 C 163.990 18.055,164.267 18.167,164.344 18.167 C 164.587 18.167,165.896 19.118,166.447 19.695 C 168.876 22.238,168.973 29.463,166.615 32.169 C 166.076 32.788,164.659 33.833,164.351 33.839 C 164.204 33.842,163.938 33.954,163.760 34.089 C 162.145 35.310,157.701 33.521,156.500 31.166 C 154.850 27.932,155.217 22.143,157.218 19.833 C 158.817 17.989,162.043 17.039,163.727 17.918 M314.455 18.252 C 315.591 18.877,316.137 19.376,316.769 20.368 C 318.359 22.865,318.404 28.787,316.852 31.333 C 314.252 35.598,308.918 35.292,306.915 30.762 C 305.801 28.243,306.020 22.765,307.319 20.656 C 308.996 17.934,312.021 16.915,314.455 18.252 M336.844 17.892 C 337.080 18.015,337.470 18.165,337.711 18.225 C 341.809 19.254,342.941 29.224,339.346 32.625 C 336.356 35.455,331.290 34.608,329.617 31.000 C 328.227 28.001,328.374 23.078,329.928 20.578 C 330.530 19.609,331.865 18.374,332.475 18.220 C 332.706 18.163,333.087 18.015,333.322 17.892 C 333.888 17.597,336.279 17.597,336.844 17.892 M384.581 18.178 C 386.593 19.129,387.678 20.643,388.083 23.066 C 388.240 24.007,388.320 23.995,382.083 23.995 C 375.721 23.995,375.909 24.030,376.062 22.877 C 376.579 18.977,381.052 16.510,384.581 18.178 M122.250 27.833 C 122.250 30.883,121.362 32.468,118.917 33.783 L 117.750 34.411 115.583 34.407 C 112.728 34.403,111.657 33.765,111.155 31.772 C 110.499 29.169,112.146 27.765,116.583 27.142 C 117.225 27.052,118.132 26.871,118.598 26.739 C 119.064 26.608,119.637 26.500,119.871 26.500 C 120.104 26.500,120.547 26.389,120.856 26.253 C 122.111 25.700,122.250 25.858,122.250 27.833 " stroke="none" fill="#5d5d65" fill-rule="evenodd"></path><path id="path1" d="M26.782 6.941 C 26.516 7.206,26.654 11.793,26.930 11.899 C 27.325 12.050,32.217 12.016,32.463 11.860 C 32.624 11.758,32.665 11.132,32.630 9.321 L 32.583 6.917 29.740 6.871 C 28.176 6.846,26.845 6.877,26.782 6.941 M211.615 6.941 C 211.552 7.004,211.500 13.757,211.500 21.949 L 211.500 36.842 214.208 36.796 L 216.917 36.750 216.966 35.542 C 217.021 34.178,217.076 34.129,217.760 34.847 C 219.715 36.896,224.879 38.355,226.046 37.187 C 226.149 37.084,226.335 37.000,226.459 37.000 C 226.777 37.000,228.179 36.345,228.458 36.066 C 228.586 35.938,228.751 35.833,228.824 35.833 C 229.016 35.833,230.578 34.188,231.040 33.500 C 233.388 30.001,233.679 23.320,231.658 19.316 C 229.183 14.413,222.243 13.008,218.333 16.619 C 217.597 17.299,217.587 17.245,217.500 11.959 L 217.417 6.917 214.573 6.871 C 213.009 6.846,211.678 6.877,211.615 6.941 M7.417 14.942 C 2.244 16.437,0.275 21.557,3.477 25.186 C 4.060 25.847,5.915 27.000,6.394 27.000 C 6.471 27.000,6.769 27.105,7.058 27.233 C 7.347 27.361,7.921 27.554,8.333 27.661 C 10.208 28.148,11.161 28.376,12.167 28.577 C 12.762 28.696,13.461 28.877,13.719 28.980 C 13.977 29.083,14.358 29.167,14.565 29.167 C 16.328 29.167,15.956 31.680,14.083 32.420 C 11.127 33.588,8.169 32.302,7.269 29.458 C 7.146 29.069,5.374 29.062,3.176 29.442 C 1.274 29.771,1.243 29.793,1.496 30.610 C 2.301 33.203,3.798 35.023,6.173 36.296 C 7.020 36.751,7.503 36.905,9.417 37.336 C 12.796 38.096,17.527 36.947,19.661 34.847 C 23.347 31.221,21.886 25.583,16.957 24.406 C 16.704 24.346,16.456 24.230,16.405 24.148 C 16.355 24.067,16.098 24.000,15.834 24.000 C 15.571 24.000,15.144 23.916,14.886 23.813 C 14.628 23.710,13.948 23.523,13.375 23.396 C 8.883 22.406,8.062 22.122,7.586 21.397 C 6.529 19.786,11.136 18.504,13.566 19.734 C 14.431 20.171,14.757 20.495,15.267 21.417 C 15.520 21.876,16.668 21.931,18.667 21.581 C 19.537 21.428,20.362 21.289,20.500 21.271 C 21.721 21.111,19.143 16.842,17.181 15.774 C 15.184 14.687,9.867 14.234,7.417 14.942 M47.475 14.979 C 46.569 15.296,45.141 16.175,44.386 16.881 C 43.611 17.606,43.333 17.418,43.333 16.172 L 43.333 15.167 40.667 15.167 L 38.000 15.167 38.000 26.004 L 38.000 36.841 40.958 36.796 L 43.917 36.750 44.001 29.667 C 44.094 21.947,44.077 22.084,45.106 20.736 C 46.152 19.364,48.521 18.862,49.837 19.733 C 51.116 20.579,51.077 20.297,51.137 29.042 L 51.190 36.833 54.178 36.833 L 57.167 36.833 57.167 30.660 C 57.167 23.529,57.284 22.508,58.270 21.056 C 59.378 19.424,61.508 18.808,62.934 19.708 C 64.385 20.624,64.383 20.607,64.458 29.379 L 64.522 36.841 67.469 36.795 L 70.417 36.750 70.464 30.750 C 70.555 19.182,70.260 17.598,67.685 15.830 C 66.222 14.825,61.536 14.101,61.097 14.812 C 61.047 14.892,60.776 15.003,60.493 15.060 C 59.847 15.189,58.522 16.079,57.340 17.178 L 56.430 18.024 56.094 17.553 C 55.179 16.273,54.173 15.476,52.771 14.922 C 51.879 14.569,48.546 14.605,47.475 14.979 M242.957 14.765 C 242.903 14.819,242.535 14.935,242.138 15.023 C 240.475 15.391,238.367 17.024,237.635 18.511 C 236.679 20.453,236.491 21.127,236.875 21.237 C 237.621 21.451,240.224 21.835,240.925 21.834 C 241.755 21.833,241.773 21.822,242.341 20.958 C 243.721 18.860,248.197 18.592,249.136 20.551 C 249.936 22.220,249.501 23.107,247.725 23.428 C 247.372 23.492,246.951 23.612,246.790 23.695 C 246.629 23.778,246.029 23.915,245.457 23.999 C 244.064 24.203,242.694 24.486,242.083 24.695 C 241.808 24.789,241.321 24.924,241.000 24.995 C 235.552 26.197,234.128 33.531,238.806 36.296 C 242.148 38.271,245.732 37.863,249.158 35.116 C 250.057 34.396,250.042 34.388,250.410 35.747 L 250.706 36.841 253.561 36.796 C 255.356 36.767,256.402 36.688,256.378 36.583 C 256.357 36.492,256.138 35.892,255.892 35.250 L 255.445 34.083 255.334 26.917 C 255.189 17.513,255.055 17.067,251.917 15.522 C 250.451 14.800,243.509 14.214,242.957 14.765 M26.667 26.000 L 26.667 36.841 29.625 36.796 L 32.583 36.750 32.583 26.000 L 32.583 15.250 29.625 15.204 L 26.667 15.159 26.667 26.000 M224.108 19.756 C 226.216 20.715,226.895 22.255,226.898 26.083 C 226.902 29.953,226.239 31.362,223.913 32.426 C 220.447 34.011,217.500 30.945,217.500 25.752 C 217.500 20.639,220.356 18.047,224.108 19.756 M249.499 28.708 C 249.497 30.648,248.696 31.913,247.249 32.260 C 246.975 32.325,246.661 32.449,246.553 32.534 C 245.249 33.558,242.000 32.119,242.000 30.516 C 242.000 29.227,242.952 28.785,247.231 28.086 C 248.045 27.953,248.752 27.804,248.800 27.755 C 249.223 27.332,249.500 27.710,249.499 28.708 " stroke="none" fill="#fc8e20" fill-rule="evenodd"></path><path id="path2" d="M0.000 23.917 L 0.000 47.833 200.000 47.833 L 400.000 47.833 400.000 23.917 L 400.000 0.000 200.000 0.000 L 0.000 0.000 0.000 23.917 M32.630 9.321 C 32.665 11.132,32.624 11.758,32.463 11.860 C 32.217 12.016,27.325 12.050,26.930 11.899 C 26.654 11.793,26.516 7.206,26.782 6.941 C 26.845 6.877,28.176 6.846,29.740 6.871 L 32.583 6.917 32.630 9.321 M102.793 21.881 L 102.835 36.845 101.043 36.797 L 99.250 36.750 99.207 22.000 C 99.183 13.887,99.201 7.154,99.246 7.036 C 99.307 6.876,99.763 6.834,101.039 6.869 L 102.750 6.917 102.793 21.881 M147.297 8.820 C 147.353 11.056,147.399 10.995,145.667 10.995 C 143.565 10.996,143.667 11.100,143.667 8.925 C 143.667 6.665,143.530 6.812,145.575 6.870 L 147.250 6.917 147.297 8.820 M217.500 11.959 C 217.587 17.245,217.597 17.299,218.333 16.619 C 222.243 13.008,229.183 14.413,231.658 19.316 C 233.679 23.320,233.388 30.001,231.040 33.500 C 230.578 34.188,229.016 35.833,228.824 35.833 C 228.751 35.833,228.586 35.938,228.458 36.066 C 228.179 36.345,226.777 37.000,226.459 37.000 C 226.335 37.000,226.149 37.084,226.046 37.187 C 224.879 38.355,219.715 36.896,217.760 34.847 C 217.076 34.129,217.021 34.178,216.966 35.542 L 216.917 36.750 214.208 36.796 L 211.500 36.842 211.500 21.949 C 211.500 13.757,211.552 7.004,211.615 6.941 C 211.678 6.877,213.009 6.846,214.573 6.871 L 217.417 6.917 217.500 11.959 M285.500 15.153 C 285.556 20.698,285.641 23.408,285.759 23.447 C 285.855 23.480,287.803 21.630,290.087 19.336 L 294.240 15.167 296.453 15.167 C 297.671 15.167,298.666 15.223,298.666 15.292 C 298.666 15.360,296.903 17.129,294.749 19.222 C 292.596 21.315,290.833 23.119,290.833 23.231 C 290.833 23.396,294.901 29.635,296.279 31.583 C 296.993 32.592,299.667 36.671,299.667 36.751 C 299.667 36.796,298.694 36.833,297.506 36.833 L 295.345 36.833 294.062 34.875 C 292.153 31.962,290.517 29.439,289.416 27.709 C 288.146 25.715,288.096 25.703,286.659 27.102 L 285.500 28.231 285.500 32.532 L 285.500 36.833 283.667 36.833 L 281.833 36.833 281.833 21.944 C 281.833 13.756,281.886 7.003,281.950 6.939 C 282.014 6.875,282.820 6.844,283.742 6.870 L 285.417 6.917 285.500 15.153 M306.461 11.911 C 306.510 17.481,306.497 17.422,307.516 16.568 C 310.237 14.290,313.477 13.989,316.811 15.704 C 322.516 18.638,323.467 29.857,318.438 34.887 C 317.803 35.522,315.830 36.833,315.510 36.833 C 315.437 36.833,314.898 36.990,314.313 37.181 C 312.096 37.905,309.375 37.257,307.568 35.576 C 306.279 34.376,306.167 34.411,306.167 36.014 L 306.167 36.833 304.500 36.833 L 302.833 36.833 302.833 21.944 C 302.833 13.756,302.886 7.003,302.950 6.939 C 303.014 6.875,303.820 6.844,304.742 6.870 L 306.417 6.917 306.461 11.911 M136.322 11.531 L 136.333 14.980 137.042 15.075 C 137.431 15.127,138.237 15.188,138.833 15.210 L 139.917 15.250 139.965 16.432 C 140.026 17.928,139.969 17.974,137.991 18.035 L 136.417 18.083 136.380 25.500 L 136.343 32.917 136.753 33.417 C 137.154 33.906,137.194 33.916,138.575 33.888 C 139.764 33.864,139.999 33.903,140.070 34.138 C 140.147 34.393,140.496 36.459,140.499 36.676 C 140.508 37.395,136.694 37.666,135.316 37.045 C 132.807 35.914,132.781 35.806,132.715 26.417 C 132.651 17.175,132.776 18.000,131.434 18.000 C 130.090 18.000,129.970 17.862,130.034 16.390 L 130.083 15.250 130.667 15.208 C 130.987 15.184,131.569 15.124,131.958 15.073 L 132.667 14.980 132.670 12.281 L 132.673 9.583 133.613 9.000 C 134.129 8.679,134.671 8.360,134.817 8.290 C 134.964 8.220,135.308 8.025,135.583 7.857 C 136.289 7.425,136.308 7.517,136.322 11.531 M15.168 14.989 C 16.765 15.432,17.886 16.079,18.813 17.093 C 20.154 18.560,21.211 21.178,20.500 21.271 C 20.362 21.289,19.537 21.428,18.667 21.581 C 16.668 21.931,15.520 21.876,15.267 21.417 C 14.757 20.495,14.431 20.171,13.566 19.734 C 11.136 18.504,6.529 19.786,7.586 21.397 C 8.062 22.122,8.883 22.406,13.375 23.396 C 13.948 23.523,14.628 23.710,14.886 23.813 C 15.144 23.916,15.571 24.000,15.834 24.000 C 16.098 24.000,16.355 24.067,16.405 24.148 C 16.456 24.230,16.704 24.346,16.957 24.406 C 21.886 25.583,23.347 31.221,19.661 34.847 C 17.527 36.947,12.796 38.096,9.417 37.336 C 7.503 36.905,7.020 36.751,6.173 36.296 C 3.798 35.023,2.301 33.203,1.496 30.610 C 1.243 29.793,1.274 29.771,3.176 29.442 C 5.374 29.062,7.146 29.069,7.269 29.458 C 8.169 32.302,11.127 33.588,14.083 32.420 C 15.956 31.680,16.328 29.167,14.565 29.167 C 14.358 29.167,13.977 29.083,13.719 28.980 C 13.461 28.877,12.762 28.696,12.167 28.577 C 11.161 28.376,10.208 28.148,8.333 27.661 C 7.921 27.554,7.347 27.361,7.058 27.233 C 6.769 27.105,6.471 27.000,6.394 27.000 C 6.318 27.000,5.783 26.765,5.206 26.478 C 0.633 24.204,1.066 17.478,5.917 15.460 C 8.023 14.584,12.825 14.340,15.168 14.989 M52.771 14.922 C 54.173 15.476,55.179 16.273,56.094 17.553 L 56.430 18.024 57.340 17.178 C 58.522 16.079,59.847 15.189,60.493 15.060 C 60.776 15.003,61.047 14.892,61.097 14.812 C 61.536 14.101,66.222 14.825,67.685 15.830 C 70.260 17.598,70.555 19.182,70.464 30.750 L 70.417 36.750 67.469 36.795 L 64.522 36.841 64.458 29.379 C 64.383 20.607,64.385 20.624,62.934 19.708 C 61.508 18.808,59.378 19.424,58.270 21.056 C 57.284 22.508,57.167 23.529,57.167 30.660 L 57.167 36.833 54.178 36.833 L 51.190 36.833 51.137 29.042 C 51.077 20.297,51.116 20.579,49.837 19.733 C 48.521 18.862,46.152 19.364,45.106 20.736 C 44.077 22.084,44.094 21.947,44.001 29.667 L 43.917 36.750 40.958 36.796 L 38.000 36.841 38.000 26.004 L 38.000 15.167 40.667 15.167 L 43.333 15.167 43.333 16.172 C 43.333 17.418,43.611 17.606,44.386 16.881 C 46.467 14.935,50.451 14.004,52.771 14.922 M121.028 14.930 C 121.980 15.168,122.688 15.460,123.793 16.073 C 124.305 16.357,125.217 17.587,125.594 18.500 C 125.872 19.175,125.914 19.979,126.016 26.500 C 126.128 33.678,126.210 34.721,126.762 35.942 C 127.160 36.821,127.139 36.833,125.189 36.833 L 123.379 36.833 123.122 36.125 C 122.981 35.735,122.819 35.210,122.763 34.958 C 122.629 34.361,122.511 34.377,121.373 35.149 C 114.959 39.504,107.167 37.332,107.167 31.190 C 107.167 26.753,110.083 24.714,117.453 24.000 C 118.298 23.918,119.123 23.781,119.286 23.695 C 119.450 23.609,119.996 23.483,120.500 23.416 C 121.969 23.219,122.334 22.860,122.330 21.614 C 122.324 20.000,121.126 18.167,120.077 18.167 C 119.964 18.167,119.657 18.055,119.394 17.918 C 119.059 17.743,118.392 17.668,117.160 17.668 C 114.148 17.666,112.805 18.395,111.758 20.600 C 111.074 22.042,111.434 21.931,109.000 21.448 C 107.791 21.208,107.820 21.261,108.206 20.000 C 108.984 17.461,111.055 15.682,114.083 14.953 C 115.526 14.605,119.673 14.592,121.028 14.930 M164.647 14.925 C 170.227 16.354,173.128 22.230,171.759 29.333 C 171.000 33.275,168.440 36.139,164.917 36.987 C 164.550 37.075,163.950 37.225,163.583 37.320 C 161.446 37.872,157.906 37.101,155.907 35.649 C 150.807 31.945,150.133 22.078,154.666 17.486 C 155.702 16.437,156.007 16.218,157.333 15.573 C 159.155 14.686,162.545 14.386,164.647 14.925 M189.417 14.966 C 191.550 15.569,192.930 16.855,193.705 18.961 C 194.044 19.884,194.056 20.204,194.070 28.333 L 194.083 36.750 192.302 36.797 L 190.521 36.844 190.467 28.881 C 190.407 19.915,190.422 20.030,189.142 18.934 C 187.744 17.738,186.004 17.407,184.244 18.004 C 180.426 19.298,180.000 20.542,180.000 30.410 L 180.000 36.833 178.250 36.833 L 176.500 36.833 176.500 25.994 L 176.500 15.155 178.125 15.202 L 179.750 15.250 179.801 16.329 C 179.866 17.719,180.034 17.793,180.991 16.855 C 183.012 14.873,186.400 14.113,189.417 14.966 M250.195 14.930 C 251.758 15.320,252.904 15.913,253.713 16.750 C 255.169 18.256,255.204 18.478,255.334 26.917 L 255.445 34.083 255.892 35.250 C 256.138 35.892,256.357 36.492,256.378 36.583 C 256.402 36.688,255.356 36.767,253.561 36.796 L 250.706 36.841 250.410 35.747 C 250.042 34.388,250.057 34.396,249.158 35.116 C 245.732 37.863,242.148 38.271,238.806 36.296 C 234.128 33.531,235.552 26.197,241.000 24.995 C 241.321 24.924,241.808 24.789,242.083 24.695 C 242.694 24.486,244.064 24.203,245.457 23.999 C 246.029 23.915,246.629 23.778,246.790 23.695 C 246.951 23.612,247.372 23.492,247.725 23.428 C 249.501 23.107,249.936 22.220,249.136 20.551 C 248.197 18.592,243.721 18.860,242.341 20.958 C 241.773 21.822,241.755 21.833,240.925 21.834 C 240.224 21.835,237.621 21.451,236.875 21.237 C 236.491 21.127,236.679 20.453,237.635 18.511 C 238.367 17.024,240.475 15.391,242.138 15.023 C 242.535 14.935,242.903 14.819,242.957 14.765 C 243.190 14.533,249.147 14.669,250.195 14.930 M272.287 14.918 C 274.736 15.545,276.455 16.964,277.518 19.236 C 278.304 20.916,278.266 21.218,277.250 21.353 C 276.792 21.414,276.206 21.547,275.947 21.649 C 275.036 22.007,274.845 21.906,274.340 20.792 C 273.399 18.716,271.809 17.667,269.607 17.667 C 268.489 17.667,266.689 18.178,266.528 18.542 C 266.497 18.610,266.376 18.667,266.257 18.667 C 265.945 18.667,264.751 20.015,264.317 20.858 C 262.819 23.771,263.118 29.797,264.876 32.125 C 265.347 32.748,266.709 33.831,267.032 33.839 C 267.152 33.842,267.396 33.954,267.574 34.089 C 268.104 34.490,270.595 34.420,271.604 33.975 C 273.289 33.232,274.140 32.252,274.689 30.424 C 275.094 29.072,275.165 29.041,276.971 29.440 L 278.417 29.759 278.366 30.421 C 278.243 32.011,276.706 34.469,275.089 35.661 C 273.159 37.084,269.865 37.864,267.917 37.358 C 267.550 37.263,266.912 37.104,266.500 37.004 C 261.334 35.751,258.541 29.557,259.986 22.557 C 261.203 16.660,266.427 13.416,272.287 14.918 M337.821 14.927 C 341.055 15.755,343.386 17.866,344.532 21.005 C 347.033 27.854,343.856 35.771,338.114 36.996 C 337.730 37.078,337.117 37.223,336.750 37.319 C 335.049 37.761,332.219 37.322,330.218 36.306 C 328.368 35.367,326.721 33.604,325.962 31.750 C 324.539 28.276,324.673 22.849,326.262 19.603 C 326.965 18.168,329.517 15.667,330.278 15.667 C 330.327 15.667,330.609 15.551,330.907 15.410 C 332.479 14.664,335.871 14.427,337.821 14.927 M362.552 14.933 C 367.050 16.316,367.550 17.841,367.465 29.917 L 367.417 36.750 365.625 36.797 L 363.833 36.845 363.830 29.714 C 363.826 22.004,363.729 20.690,363.087 19.672 C 362.652 18.984,361.607 18.167,361.161 18.167 C 361.018 18.167,360.821 18.087,360.724 17.990 C 360.145 17.412,357.612 17.724,356.167 18.552 C 353.644 19.996,353.333 21.294,353.333 30.381 L 353.333 36.845 351.542 36.797 L 349.750 36.750 349.750 26.000 L 349.750 15.250 351.417 15.250 L 353.083 15.250 353.129 16.250 C 353.200 17.791,353.233 17.810,354.224 16.873 C 356.307 14.903,359.805 14.088,362.552 14.933 M384.808 14.932 C 385.669 15.174,386.416 15.496,387.480 16.083 C 390.011 17.481,391.836 21.271,391.893 25.250 L 391.917 26.917 383.889 27.000 C 379.473 27.046,375.805 27.139,375.738 27.207 C 375.539 27.406,376.138 29.839,376.624 30.809 C 378.915 35.374,385.328 35.630,387.604 31.246 C 388.183 30.131,388.337 30.083,390.167 30.459 C 391.891 30.813,391.973 30.998,391.106 32.575 C 389.547 35.411,387.968 36.483,384.083 37.339 C 383.227 37.527,381.439 37.527,380.583 37.339 C 377.011 36.551,375.322 35.523,373.815 33.218 C 371.448 29.596,371.321 23.537,373.526 19.339 C 373.972 18.489,375.910 16.434,376.513 16.170 C 376.735 16.074,377.244 15.810,377.643 15.585 C 378.043 15.359,378.643 15.126,378.977 15.066 C 379.310 15.006,379.696 14.894,379.833 14.817 C 380.283 14.565,383.792 14.646,384.808 14.932 M32.583 26.000 L 32.583 36.750 29.625 36.796 L 26.667 36.841 26.667 26.000 L 26.667 15.159 29.625 15.204 L 32.583 15.250 32.583 26.000 M79.215 22.875 C 79.291 31.726,79.298 31.787,80.508 32.984 C 81.715 34.179,83.835 34.683,85.203 34.100 C 85.504 33.972,86.083 33.729,86.490 33.561 C 89.207 32.435,89.523 31.290,89.625 22.203 L 89.704 15.155 91.394 15.203 L 93.083 15.250 93.126 26.042 L 93.169 36.833 91.585 36.833 L 90.000 36.833 90.000 35.680 C 90.000 33.938,89.935 33.884,88.997 34.836 C 88.079 35.769,86.605 36.763,85.896 36.928 C 85.633 36.989,85.054 37.153,84.611 37.293 C 83.731 37.571,81.254 37.488,80.936 37.170 C 80.843 37.076,80.628 37.000,80.458 37.000 C 79.654 37.000,77.335 35.558,76.901 34.789 C 76.400 33.900,75.965 32.863,75.801 32.167 C 75.616 31.386,75.398 15.839,75.565 15.404 C 75.636 15.220,76.046 15.167,77.402 15.167 L 79.148 15.167 79.215 22.875 M147.293 26.042 L 147.336 36.833 145.501 36.833 L 143.667 36.833 143.667 26.111 C 143.667 20.214,143.719 15.336,143.783 15.272 C 143.847 15.208,144.654 15.177,145.575 15.203 L 147.250 15.250 147.293 26.042 M159.758 18.020 C 156.687 19.265,155.583 21.374,155.583 26.000 C 155.583 30.496,156.552 32.468,159.429 33.827 C 160.681 34.418,163.128 34.566,163.760 34.089 C 163.938 33.954,164.204 33.842,164.351 33.839 C 164.659 33.833,166.076 32.788,166.615 32.169 C 168.973 29.463,168.876 22.238,166.447 19.695 C 165.896 19.118,164.587 18.167,164.344 18.167 C 164.267 18.167,163.990 18.055,163.727 17.918 C 163.009 17.543,160.793 17.600,159.758 18.020 M309.922 18.253 C 306.961 19.770,305.739 23.142,306.316 28.204 C 307.155 35.564,314.962 36.700,317.507 29.833 C 318.087 28.270,318.101 23.652,317.532 22.035 C 316.210 18.283,312.990 16.682,309.922 18.253 M333.322 17.892 C 333.087 18.015,332.706 18.163,332.475 18.220 C 328.435 19.234,327.256 28.823,330.724 32.461 C 333.093 34.945,336.819 35.016,339.346 32.625 C 342.941 29.224,341.809 19.254,337.711 18.225 C 337.470 18.165,337.080 18.015,336.844 17.892 C 336.279 17.597,333.888 17.597,333.322 17.892 M379.583 18.234 C 377.703 19.114,376.319 20.940,376.062 22.877 C 375.909 24.030,375.721 23.995,382.083 23.995 C 388.320 23.995,388.240 24.007,388.083 23.066 C 387.354 18.701,383.395 16.450,379.583 18.234 M221.583 19.332 C 218.248 19.884,216.460 24.334,217.761 28.845 C 219.109 33.516,224.455 34.141,226.459 29.861 C 227.057 28.582,227.128 23.808,226.568 22.460 C 225.677 20.314,223.584 19.001,221.583 19.332 M120.856 26.253 C 120.547 26.389,120.104 26.500,119.871 26.500 C 119.637 26.500,119.064 26.608,118.598 26.739 C 118.132 26.871,117.225 27.052,116.583 27.142 C 112.146 27.765,110.499 29.169,111.155 31.772 C 111.657 33.765,112.728 34.403,115.583 34.407 L 117.750 34.411 118.917 33.783 C 121.362 32.468,122.250 30.883,122.250 27.833 C 122.250 25.858,122.111 25.700,120.856 26.253 M248.800 27.755 C 248.752 27.804,248.045 27.953,247.231 28.086 C 242.952 28.785,242.000 29.227,242.000 30.516 C 242.000 32.119,245.249 33.558,246.553 32.534 C 246.661 32.449,246.975 32.325,247.249 32.260 C 248.039 32.070,249.129 31.077,249.326 30.369 C 249.761 28.805,249.424 27.132,248.800 27.755 " stroke="none" fill="#ffffff" fill-rule="evenodd"></path></g></svg>